<?xml version="1.0" encoding="UTF-8" standalone="no"?>
<!-- Created with Inkscape (http://www.inkscape.org/) -->

<svg
   xmlns:dc="http://purl.org/dc/elements/1.1/"
   xmlns:cc="http://creativecommons.org/ns#"
   xmlns:rdf="http://www.w3.org/1999/02/22-rdf-syntax-ns#"
   xmlns:svg="http://www.w3.org/2000/svg"
   xmlns="http://www.w3.org/2000/svg"
   xmlns:sodipodi="http://sodipodi.sourceforge.net/DTD/sodipodi-0.dtd"
   xmlns:inkscape="http://www.inkscape.org/namespaces/inkscape"
   width="400mm"
   height="200mm"
   viewBox="0 0 1417.3228 708.66141"
   id="svg2"
   version="1.1"
   inkscape:version="0.91 r13725"
   sodipodi:docname="pacman.svg"
   inkscape:export-filename="/home/ari/development/GameTest/src/resources/pacman.png"
   inkscape:export-xdpi="90"
   inkscape:export-ydpi="90">
  <defs
     id="defs4" />
  <sodipodi:namedview
     id="base"
     pagecolor="#ffffff"
     bordercolor="#666666"
     borderopacity="1.0"
     inkscape:pageopacity="0.0"
     inkscape:pageshadow="2"
     inkscape:zoom="0.7"
     inkscape:cx="694.89681"
     inkscape:cy="398.68235"
     inkscape:document-units="px"
     inkscape:current-layer="layer1"
     showgrid="false"
     inkscape:window-width="1920"
     inkscape:window-height="1043"
     inkscape:window-x="1600"
     inkscape:window-y="0"
     inkscape:window-maximized="1"
     showguides="false" />
  <metadata
     id="metadata7">
    <rdf:RDF>
      <cc:Work
         rdf:about="">
        <dc:format>image/svg+xml</dc:format>
        <dc:type
           rdf:resource="http://purl.org/dc/dcmitype/StillImage" />
        <dc:title></dc:title>
      </cc:Work>
    </rdf:RDF>
  </metadata>
  <g
     inkscape:label="Layer 1"
     inkscape:groupmode="layer"
     id="layer1"
     transform="translate(0,-343.70079)">
    <path
       style="fill:#ffff00;stroke:#000000;stroke-opacity:1"
       d="M 354.05859 0 A 354.05847 354.05847 0 0 0 0 354.05859 A 354.05847 354.05847 0 0 0 354.05859 708.11719 A 354.05847 354.05847 0 0 0 670.15234 512.66992 L 356.66992 353.68945 L 662.1875 180.53906 A 354.05847 354.05847 0 0 0 354.05859 0 z "
       id="path3361"
       transform="translate(-6.1035156e-5,343.70079)" />
    <circle
       r="354.05847"
       cy="697.75922"
       cx="1023.8683"
       id="circle3363"
       style="fill:#ffff00;stroke:#000000;stroke-opacity:1" />
    <path
       style="fill:none;fill-rule:evenodd;stroke:#000000;stroke-width:3.135;stroke-linecap:butt;stroke-linejoin:miter;stroke-opacity:1;stroke-miterlimit:4;stroke-dasharray:none"
       d="m 1032.3759,714.97128 344.462,0"
       id="path4165"
       inkscape:connector-curvature="0" />
    <path
       style="fill:none"
       d="M 506.60111,452.07556 C 426.07702,403.2219 360.04992,362.81945 359.87422,362.29233 c -0.22916,-0.68748 283.23349,-193.83128 291.2137,-198.42516 1.9742,-1.13647 18.81564,29.29741 27.80212,50.24073 19.27867,44.92961 28.50427,90.23869 28.48863,139.91426 -0.0158,49.93639 -9.1609,94.84021 -28.5053,139.9641 -7.71071,17.98648 -23.21968,46.91412 -25.15205,46.91412 -0.39204,0 -66.59613,-39.97117 -147.12021,-88.82482 z"
       id="path4171"
       inkscape:connector-curvature="0"
       transform="translate(-6.1035156e-5,343.70079)" />
    <path
       style="fill:none"
       d="M 506.60111,452.07556 C 426.07702,403.2219 360.04992,362.81945 359.87422,362.29233 c -0.22916,-0.68748 283.23349,-193.83128 291.2137,-198.42516 1.9742,-1.13647 18.81564,29.29741 27.80212,50.24073 19.27867,44.92961 28.50427,90.23869 28.48863,139.91426 -0.0158,49.93639 -9.1609,94.84021 -28.5053,139.9641 -7.71071,17.98648 -23.21968,46.91412 -25.15205,46.91412 -0.39204,0 -66.59613,-39.97117 -147.12021,-88.82482 z"
       id="path4173"
       inkscape:connector-curvature="0"
       transform="translate(-6.1035156e-5,343.70079)" />
    <path
       style="fill:none"
       d="M 506.60111,452.07556 C 426.07702,403.2219 360.04992,362.81945 359.87422,362.29233 c -0.22916,-0.68748 283.23349,-193.83128 291.2137,-198.42516 1.9742,-1.13647 18.81564,29.29741 27.80212,50.24073 19.27867,44.92961 28.50427,90.23869 28.48863,139.91426 -0.0158,49.93639 -9.1609,94.84021 -28.5053,139.9641 -7.71071,17.98648 -23.21968,46.91412 -25.15205,46.91412 -0.39204,0 -66.59613,-39.97117 -147.12021,-88.82482 z"
       id="path4175"
       inkscape:connector-curvature="0"
       transform="translate(-6.1035156e-5,343.70079)" />
    <path
       style="fill:none"
       d="M 506.60111,452.07556 C 426.07702,403.2219 360.04992,362.81945 359.87422,362.29233 c -0.22916,-0.68748 283.23349,-193.83128 291.2137,-198.42516 1.9742,-1.13647 18.81564,29.29741 27.80212,50.24073 19.27867,44.92961 28.50427,90.23869 28.48863,139.91426 -0.0158,49.93639 -9.1609,94.84021 -28.5053,139.9641 -7.71071,17.98648 -23.21968,46.91412 -25.15205,46.91412 -0.39204,0 -66.59613,-39.97117 -147.12021,-88.82482 z"
       id="path4177"
       inkscape:connector-curvature="0"
       transform="translate(-6.1035156e-5,343.70079)" />
    <path
       style="fill:none"
       d="M 506.60111,452.07556 C 426.07702,403.2219 360.04992,362.81945 359.87422,362.29233 c -0.22916,-0.68748 283.23349,-193.83128 291.2137,-198.42516 1.9742,-1.13647 18.81564,29.29741 27.80212,50.24073 19.27867,44.92961 28.50427,90.23869 28.48863,139.91426 -0.0158,49.93639 -9.1609,94.84021 -28.5053,139.9641 -7.71071,17.98648 -23.21968,46.91412 -25.15205,46.91412 -0.39204,0 -66.59613,-39.97117 -147.12021,-88.82482 z"
       id="path4179"
       inkscape:connector-curvature="0"
       transform="translate(-6.1035156e-5,343.70079)" />
    <path
       style="fill:none"
       d="m 350.82548,1077.9827 c -80.52409,-48.8537 -146.55119,-89.25614 -146.72689,-89.78326 -0.22916,-0.68748 283.23349,-193.83128 291.2137,-198.42516 1.9742,-1.13647 18.81564,29.29741 27.80212,50.24073 19.27867,44.92961 28.50427,90.23869 28.48863,139.91426 -0.0158,49.93633 -9.1609,94.84023 -28.5053,139.96413 -7.71071,17.9865 -23.21968,46.914 -25.15205,46.914 -0.39204,0 -66.59613,-39.9711 -147.12021,-88.8247 z"
       id="path4181"
       inkscape:connector-curvature="0" />
    <path
       style="fill:none"
       d="M 506.60111,452.07556 C 426.07702,403.2219 360.04992,362.81945 359.87422,362.29233 c -0.22916,-0.68748 283.23349,-193.83128 291.2137,-198.42516 1.9742,-1.13647 18.81564,29.29741 27.80212,50.24073 19.27867,44.92961 28.50427,90.23869 28.48863,139.91426 -0.0158,49.93639 -9.1609,94.84021 -28.5053,139.9641 -7.71071,17.98648 -23.21968,46.91412 -25.15205,46.91412 -0.39204,0 -66.59613,-39.97117 -147.12021,-88.82482 z"
       id="path4183"
       inkscape:connector-curvature="0"
       transform="translate(-6.1035156e-5,343.70079)" />
    <path
       style="fill:none"
       d="M 506.60111,452.07556 C 426.07702,403.2219 360.04992,362.81945 359.87422,362.29233 c -0.22916,-0.68748 283.23349,-193.83128 291.2137,-198.42516 1.9742,-1.13647 18.81564,29.29741 27.80212,50.24073 19.27867,44.92961 28.50427,90.23869 28.48863,139.91426 -0.0158,49.93639 -9.1609,94.84021 -28.5053,139.9641 -7.71071,17.98648 -23.21968,46.91412 -25.15205,46.91412 -0.39204,0 -66.59613,-39.97117 -147.12021,-88.82482 z"
       id="path4185"
       inkscape:connector-curvature="0"
       transform="translate(-6.1035156e-5,343.70079)" />
    <path
       style="fill:none"
       d="M 506.60111,452.07556 C 426.07702,403.2219 360.04992,362.81945 359.87422,362.29233 c -0.22916,-0.68748 283.23349,-193.83128 291.2137,-198.42516 1.9742,-1.13647 18.81564,29.29741 27.80212,50.24073 19.27867,44.92961 28.50427,90.23869 28.48863,139.91426 -0.0158,49.93639 -9.1609,94.84021 -28.5053,139.9641 -7.71071,17.98648 -23.21968,46.91412 -25.15205,46.91412 -0.39204,0 -66.59613,-39.97117 -147.12021,-88.82482 z"
       id="path4187"
       inkscape:connector-curvature="0"
       transform="translate(-6.1035156e-5,343.70079)" />
    <path
       style="fill:none"
       d="M 506.60111,452.07556 C 426.07702,403.2219 360.04992,362.81945 359.87422,362.29233 c -0.22916,-0.68748 283.23349,-193.83128 291.2137,-198.42516 1.9742,-1.13647 18.81564,29.29741 27.80212,50.24073 19.27867,44.92961 28.50427,90.23869 28.48863,139.91426 -0.0158,49.93639 -9.1609,94.84021 -28.5053,139.9641 -7.71071,17.98648 -23.21968,46.91412 -25.15205,46.91412 -0.39204,0 -66.59613,-39.97117 -147.12021,-88.82482 z"
       id="path4189"
       inkscape:connector-curvature="0"
       transform="translate(-6.1035156e-5,343.70079)" />
    <path
       style="fill:none"
       d="M 506.60111,452.07556 C 426.07702,403.2219 360.04992,362.81945 359.87422,362.29233 c -0.22916,-0.68748 283.23349,-193.83128 291.2137,-198.42516 1.9742,-1.13647 18.81564,29.29741 27.80212,50.24073 19.27867,44.92961 28.50427,90.23869 28.48863,139.91426 -0.0158,49.93639 -9.1609,94.84021 -28.5053,139.9641 -7.71071,17.98648 -23.21968,46.91412 -25.15205,46.91412 -0.39204,0 -66.59613,-39.97117 -147.12021,-88.82482 z"
       id="path4191"
       inkscape:connector-curvature="0"
       transform="translate(-6.1035156e-5,343.70079)" />
    <path
       style="fill:#ff0000;fill-opacity:0"
       d="m 505.59572,451.67844 c -80.67859,-48.98849 -146.6858,-89.29727 -146.68268,-89.57506 0.007,-0.63542 292.05073,-198.52545 292.81186,-198.4106 1.18538,0.17887 12.44719,19.75525 19.12828,33.25066 17.39435,35.13557 28.20138,70.63607 33.99696,111.67819 2.21694,15.69951 3.08636,58.36053 1.54482,75.8012 -4.37451,49.49231 -19.25393,98.32128 -42.91149,140.82019 -4.6391,8.33376 -9.05678,15.23173 -9.81706,15.32884 -0.76029,0.0971 -67.39209,-39.90493 -148.07069,-88.89342 z"
       id="path4212"
       inkscape:connector-curvature="0"
       transform="translate(-6.1035156e-5,343.70079)" />
  </g>
</svg>
